<svg width="1200" height="580" xmlns="http://www.w3.org/2000/svg">

 <g>
  <title>Layer 1</title>
  <path id="svg_1" fill-rule="nonzero" fill="#FFFA72" d="m734.567,34.372c-28.692,61.724 -23.266,100.422 16.275,116.094c59.313,23.508 200.347,32.911 259.299,83.906c58.95,50.994 238.697,11.572 269.438,-75.95c30.741,-87.522 86.09,-222.422 -205.771,-222.422c-194.576,0 -307.654,32.79 -339.24,98.372l-0.001,0z"/>
  <path id="svg_2" fill-rule="nonzero" fill=" rgb(241, 218, 223)" d="m312.35269,156.2416c19.44424,172.8272 97.19549,281.1816 233.24535,325.06319c204.07898,65.8224 614.17489,92.1508 861.67803,234.9368c247.49593,142.7832 687.05866,32.4016 631.64706,-212.66c-55.4116,-245.0616 -118.51118,-622.78159 -935.72196,-622.78159c-544.81279,0 -808.4235,91.812 -790.84568,275.4416l-0.0028,0z"/>
  <path id="svg_3" fill-rule="nonzero" fill=" rgb(234, 198, 208)" d="m344.0189,146.0858c9.11464,163.56861 76.87755,266.11831 203.28077,307.64911c189.60881,62.2962 576.32039,87.21415 802.89095,222.35091c226.56388,135.1341 648.51068,30.6658 609.23747,-201.26751c-39.27321,-231.93331 -78.69331,-589.41832 -852.12499,-589.41832c-515.62642,0 -770.04923,86.8935 -763.28156,260.68581l-0.00265,0z"/>
  <path id="svg_4" fill-rule="nonzero" fill=" rgb(226, 179, 194)" d="m376.48731,135.93c0.22592,154.31 58.90385,251.055 176.02628,290.235c175.6874,58.77 539.23412,82.2775 746.06251,209.765c206.82222,127.485 610.23278,28.93 585.05485,-189.875c-25.17793,-218.805 -44.06767,-556.055 -773.72017,-556.055c-486.44,0 -730.90944,81.975 -733.42097,245.93l-0.0025,0z"/>
  <path id="svg_5" fill-rule="nonzero" fill=" rgb(218, 159, 179)" d="m409.69015,125.7742c-7.34393,145.05139 43.07588,235.99169 151.25238,272.82089c162.26828,55.2438 502.85106,77.34085 691.0269,197.17909c188.17016,119.8359 572.20214,27.1942 559.24939,-178.48249c-12.95274,-205.67669 -14.19453,-522.69168 -700.06786,-522.69168c-457.25358,0 -691.06902,77.0565 -701.45846,231.17419l-0.00235,0z"/>
  <path id="svg_6" fill-rule="nonzero" fill=" rgb(210, 139, 164)" d="m443.5703,115.6184c-13.69783,135.7928 29.22621,220.9284 128.76553,255.40681c149.31228,51.7176 467.1164,72.4042 637.64428,184.5932c170.52268,112.1868 534.39952,25.4584 531.94779,-167.09c-2.45173,-192.5484 11.29692,-489.32841 -630.79729,-489.32841c-428.06721,0 -650.58271,72.138 -667.55811,216.4184l-0.0022,0z"/>
  <path id="svg_7" fill-rule="nonzero" fill=" rgb(203, 119, 149)" d="m478.0791,105.4626c-18.92249,126.5342 17.21377,205.8651 108.40262,237.99269c136.78635,48.1914 431.98379,67.46755 585.79667,172.0073c153.80813,104.5377 496.80855,23.7226 503.25662,-155.6975c6.44806,-179.4201 32.71914,-455.96509 -565.5959,-455.96509c-398.88079,0 -609.49644,67.2195 -631.85796,201.6626l-0.00205,0z"/>
  <path id="svg_8" fill-rule="nonzero" fill=" rgb(195, 99, 134)" d="m513.17617,95.3068c-23.09093,117.2756 6.91974,190.8018 90.0263,220.5786c124.66269,44.6652 397.41438,62.5309 535.38489,159.4214c137.9662,96.8886 459.41563,21.9868 473.26582,-144.305c13.85019,-166.2918 50.33529,-422.60179 -504.2006,-422.60179c-369.6944,0 -567.84911,62.301 -594.47451,186.9068l-0.0019,0z"/>
  <path id="svg_9" fill-rule="nonzero" fill=" rgb(187, 79, 119)" d="m548.82742,85.151c-26.26419,108.017 -1.75518,175.7385 73.52178,203.1645c112.91805,41.139 363.3756,57.59425 486.32593,146.8355c122.94644,89.2395 422.20929,20.251 442.05048,-132.9125c19.84119,-153.1635 64.36532,-389.2385 -446.39143,-389.2385c-340.508,0 -525.67309,57.3825 -555.50501,172.151l-0.00175,0z"/>
  <path id="svg_10" fill-rule="nonzero" fill=" rgb(179, 60, 105)" d="m585.00435,74.9952c-28.49344,98.7584 -8.89424,160.6752 58.79279,185.7504c101.53295,37.6128 329.84015,52.6576 438.55022,134.2496c108.70658,81.5904 385.17993,18.5152 409.67356,-121.52c24.49363,-140.0352 74.99364,-355.87521 -391.98397,-355.87521c-311.3216,0 -482.99559,52.464 -515.031,157.3952l-0.0016,0z"/>
  <path id="svg_11" fill-rule="nonzero" fill=" rgb(172, 40, 90)" d="m621.68366,64.8394c-29.82054,89.4998 -14.56554,145.6119 45.76063,168.33631c90.49144,34.0866 296.78574,47.72095 392.00088,121.6637c95.21205,73.9413 348.31971,16.7794 376.18656,-110.1275c27.86685,-126.9069 82.37103,-322.51191 -340.82743,-322.51191c-282.13521,0 -439.83883,47.5455 -473.11919,142.6394l-0.00145,0z"/>
  <path id="svg_12" fill-rule="nonzero" fill=" rgb(164, 20, 75)" d="m658.84636,54.6836c-30.27942,80.2412 -18.8243,130.5486 34.36145,150.92219c79.78058,30.5604 264.19422,42.7843 346.63174,109.0778c82.4348,66.2922 311.62223,15.0436 341.63121,-98.735c30.00898,-113.7786 86.61983,-289.14859 -292.79946,-289.14859c-252.94879,0 -396.22081,42.627 -429.82364,127.8836l-0.0013,0z"/>
  <path id="svg_13" fill-rule="nonzero" fill=" rgb(156, 0, 60)" d="m633.47785,68.5278c-29.89664,70.9826 -21.71371,115.4853 24.54533,133.5081c69.39029,27.0342 232.05151,37.84765 302.40676,96.4919c70.35291,58.6431 275.08257,13.3078 306.04024,-87.3425c30.95767,-100.6503 87.83569,-255.78529 -247.80445,-255.78529c-223.7624,0 -352.15571,37.7085 -385.18673,113.1278l-0.00115,0z"/>
 </g>
</svg>